{"title":"Lord of War 2005 BRrip 1080P x264 MP4 - Ofek","uid":11714539,"size":5974683136,"categoryP":"video","categoryS":"hd___movies","magnet":"?xt=urn:btih:fc320583cd99a4630703a862b57e364153e55fe2&amp;dn=Lord+of+War+2005+BRrip+1080P+x264+MP4+-+Ofek&amp;tr=udp%3A%2F%2Ftracker.openbittorrent.com%3A80&amp;tr=udp%3A%2F%2Fopen.demonii.com%3A1337&amp;tr=udp%3A%2F%2Ftracker.coppersurfer.tk%3A6969&amp;tr=udp%3A%2F%2Fexodus.desync.com%3A6969","seeders":1,"leechers":0,"uploader":"realOfek","files":2,"time":1424502956,"description":"Please leave feedback!\n\nSource: Bluray (Special thanks to: amazon . com, PublicHD, RARBG, KRaLiMaRKo, IMKNONOBODY (formerly BOZX), Grym a.k.a. vonRicht on TPB (for extras only), CHD, CHDBits, BONZO, HDCLUB, CtrlHD, HDWinG, HighCode, FraMeSToR, DVDSEED, R2D2, EbP, HDChina, LAZERS, BLUEBIRD, BluDragon)\n\nUsed denoise and/or sharpening filters, looks extremely crisp. Subtitles were done myself, and are perfectly synced. English is hard subbed for foreign dialogue, external .srt has foreign dialogue excluded so everyone wins. Commentary included.\n\nGeneral\nFormat : MPEG-4\nFormat profile : Base Media\nCodec ID : isom\nFile size : 5.56 GiB\nDuration : 2h 1mn\nOverall bit rate mode : Variable\nOverall bit rate : 6 532 Kbps\nEncoded date : UTC 2014-12-01 21:55:47\nTagged date : UTC 2014-12-01 21:55:47\n\nVideo\nID : 1\nFormat : AVC\nFormat/Info : Advanced Video Codec\nFormat profile : &lt;a class=&quot;__cf_email__&quot; href=&quot;/cdn-cgi/l/email-protection&quot; data-cfemail=&quot;672f0e000f272b534957&quot;&gt;[email&amp;#160;protected]&lt;/a&gt;&lt;script cf-hash='f9e31' type=&quot;text/javascript&quot;&gt;\n/* &lt;![CDATA[ */!function(){try{var t=&quot;currentScript&quot;in document?document.currentScript:function(){for(var t=document.getElementsByTagName(&quot;script&quot;),e=t.length;e--;)if(t[e].getAttribute(&quot;cf-hash&quot;))return t[e]}();if(t&amp;&amp;t.previousSibling){var e,r,n,i,c=t.previousSibling,a=c.getAttribute(&quot;data-cfemail&quot;);if(a){for(e=&quot;&quot;,r=parseInt(a.substr(0,2),16),n=2;a.length-n;n+=2)i=parseInt(a.substr(n,2),16)^r,e+=String.fromCharCode(i);e=document.createTextNode(e),c.parentNode.replaceChild(e,c)}}}catch(u){}}();/* ]]&gt; */&lt;/script&gt;\nFormat settings, CABAC : Yes\nFormat settings, ReFrames : 4 frames\nCodec ID : avc1\nCodec ID/Info : Advanced Video Coding\nDuration : 2h 1mn\nBit rate : 4 695 Kbps\nMaximum bit rate : 33.8 Mbps\nWidth : 1 920 pixels\nHeight : 800 pixels\nDisplay aspect ratio : 2.40:1\nFrame rate mode : Constant\nFrame rate : 23.976 fps\nColor space : YUV\nChroma subsampling : 4:2:0\nBit depth : 8 bits\nScan type : Progressive\nBits/(Pixel*Frame) : 0.127\nStream size : 4.00 GiB (72%)\nTitle : Lord of War\nLanguage : English\nEncoded date : UTC 2014-12-01 21:55:47\nTagged date : UTC 2014-12-01 21:58:17\n\nAudio #1\nID : 2\nFormat : AAC\nFormat/Info : Advanced Audio Codec\nFormat profile : LC\nCodec ID : 40\nDuration : 2h 1mn\nBit rate mode : Variable\nBit rate : 127 Kbps\nMaximum bit rate : 200 Kbps\nChannel(s) : 2 channels\nChannel positions : Front: L R\nSampling rate : 48.0 KHz\nCompression mode : Lossy\nStream size : 111 MiB (2%)\nTitle : Stereo\nLanguage : English\nTagged date : UTC 2014-12-01 21:58:17\n\nAudio #2\nID : 3\nFormat : AC-3\nFormat/Info : Audio Coding 3\nMode extension : CM (complete main)\nFormat settings, Endianness : Big\nCodec ID : ac-3\nDuration : 2h 1mn\nBit rate mode : Constant\nBit rate : 640 Kbps\nChannel(s) : 6 channels\nChannel positions : Front: L C R, Side: L R, LFE\nSampling rate : 48.0 KHz\nBit depth : 16 bits\nCompression mode : Lossy\nStream size : 558 MiB (10%)\nTitle : 5.1 Surround\nLanguage : English\nEncoded date : UTC 2014-12-01 21:57:11\nTagged date : UTC 2014-12-01 21:58:17\n\nAudio #3\nID : 4\nFormat : AAC\nFormat/Info : Advanced Audio Codec\nFormat profile : LC\nCodec ID : 40\nDuration : 2h 1mn\nBit rate mode : Variable\nBit rate : 871 Kbps\nMaximum bit rate : 1 263 Kbps\nChannel(s) : 8 channels\nChannel positions : Front: L C R, Side: L R, Back: L R, LFE\nSampling rate : 48.0 KHz\nCompression mode : Lossy\nStream size : 760 MiB (13%)\nTitle : 7.1 Surround\nLanguage : English\nEncoded date : UTC 2014-11-30 22:59:40\nTagged date : UTC 2014-12-01 21:58:17\n\nAudio #4\nID : 5\nFormat : AC-3\nFormat/Info : Audio Coding 3\nMode extension : CM (complete main)\nFormat settings, Endianness : Big\nCodec ID : ac-3\nDuration : 2h 1mn\nBit rate mode : Constant\nBit rate : 192 Kbps\nChannel(s) : 2 channels\nChannel positions : Front: L R\nSampling rate : 48.0 KHz\nBit depth : 16 bits\nCompression mode : Lossy\nStream size : 167 MiB (3%)\nTitle : Commentary 1\nLanguage : English\nEncoded date : UTC 2014-12-01 21:57:57\nTagged date : UTC 2014-12-01 21:58:17\n\nEnjoy!","torrent":{"xt":"urn:btih:fc320583cd99a4630703a862b57e364153e55fe2","amp;dn":"Lord+of+War+2005+BRrip+1080P+x264+MP4+-+Ofek","amp;tr":["udp%3A%2F%2Ftracker.openbittorrent.com%3A80","udp%3A%2F%2Fopen.demonii.com%3A1337","udp%3A%2F%2Ftracker.coppersurfer.tk%3A6969","udp%3A%2F%2Fexodus.desync.com%3A6969"],"infoHash":"fc320583cd99a4630703a862b57e364153e55fe2","infoHashBuffer":{"type":"Buffer","data":[252,50,5,131,205,153,164,99,7,3,168,98,181,126,54,65,83,229,95,226]},"announce":[],"urlList":[]}}